# xmcd
#
# Track frame offsets:
#	150
#	11355
#	21727
#	32701
#	44094
#	55759
#	66880
#	75932
#	86240
#	97081
#	108449
#	120585
#	128483
#	141594
#	151004
#	164151
#	177337
#	188113
#	198003
#	208438
#	218844
#	231616
#	242292
#	252069
#	265684
#	277900
#	288558
#	297604
#	314118
#
# Disc length: 4366 seconds
#
# Revision: 1
# Processed by: cddbd v1.5.2PL0 Copyright (c) Steve Scherf et al.
# Submitted via: audiograbber 1.83.01
#
DISCID=b9110c1d
DTITLE=Merle Haggard - Strangers_Swinging Doors And the Bottle Let Me Down
DYEAR=2006
DGENRE=Country
TTITLE0=Strangers
TTITLE1=Falling For You
TTITLE2=Please Mr.D.J.
TTITLE3=You Don't Have Far To Go
TTITLE4=Sing A Sad Song
TTITLE5=Sam Hill
TTITLE6=I'm Gonna Break Every Heart I Can
TTITLE7=You Don't Even Try
TTITLE8=If I Had Left It Up To You
TTITLE9=I'd Trade All Of My Tomorrows
TTITLE10=The Worst Is Yet To Come
TTITLE11=Walkin' The Floor Over You
TTITLE12=The Fugitive (alternate take - bonus track)
TTITLE13=Jimmie The Kid (previously unreleased - bonus track)
TTITLE14=Swinging Doors
TTITLE15=If I Could Be Him
TTITLE16=The Longer You Wait
TTITLE17=I'll Look You Over
TTITLE18=I Can't Stand Me
TTITLE19=The Girl Turned Ripe
TTITLE20=The Bottle Let Me Down
TTITLE21=No More You And Me
TTITLE22=Somebody Else You've Known
TTITLE23=High On A Hilltop
TTITLE24=This Town's Not Big Enough
TTITLE25=Shade Tree (Fix It Man)
TTITLE26=Skid Row (alternate take - bonus track)
TTITLE27=When No Flowers Grow (previously unreleased - bonus track)
TTITLE28=I Threw Away The Rose (alternate take - bonus track)
EXTD=
EXTT0=
EXTT1=
EXTT2=
EXTT3=
EXTT4=
EXTT5=
EXTT6=
EXTT7=
EXTT8=
EXTT9=
EXTT10=
EXTT11=
EXTT12=
EXTT13=
EXTT14=
EXTT15=
EXTT16=
EXTT17=
EXTT18=
EXTT19=
EXTT20=
EXTT21=
EXTT22=
EXTT23=
EXTT24=
EXTT25=
EXTT26=
EXTT27=
EXTT28=
PLAYORDER=
